<?xml version="1.0" standalone="no"?>
<!DOCTYPE svg PUBLIC "-//W3C//DTD SVG 20010904//EN"
 "http://www.w3.org/TR/2001/REC-SVG-20010904/DTD/svg10.dtd">
<svg version="1.0" xmlns="http://www.w3.org/2000/svg"
 width="171.000000pt" height="149.000000pt" viewBox="0 0 188.000000 163.000000"
 preserveAspectRatio="xMidYMid meet">

<g transform="translate(0.000000,163.000000) scale(0.100000,-0.100000)"
fill="#000000" stroke="none">
<path d="M795 1536 c-237 -55 -413 -192 -515 -401 -57 -118 -71 -181 -72 -314
0 -113 13 -188 50 -281 69 -177 230 -340 402 -408 225 -90 509 -60 695 73 124
88 223 212 269 335 43 113 50 152 50 270 0 140 -17 211 -81 340 -38 79 -61
109 -132 180 -97 97 -161 138 -288 181 -73 26 -107 31 -203 35 -76 2 -135 -1
-175 -10z m264 -87 c108 -18 241 -88 328 -173 40 -39 73 -77 73 -84 0 -7 -14
-12 -34 -12 l-35 0 -128 -232 -128 -233 -5 230 -5 230 -60 0 -60 0 -3 -368 -2
-368 62 3 62 3 48 80 c26 44 54 80 62 80 8 0 46 -37 85 -82 63 -72 75 -82 109
-85 l37 -3 -50 -54 c-221 -238 -568 -280 -835 -100 -72 48 -171 152 -149 157
9 1 27 26 40 55 l24 52 143 3 142 3 24 -56 25 -55 70 0 70 0 -24 53 c-13 28
-85 194 -160 367 -75 173 -140 318 -144 322 -4 5 -68 -133 -142 -305 -75 -171
-140 -312 -145 -312 -19 0 -46 112 -51 212 -12 209 55 376 204 514 145 134
347 192 552 158z m481 -398 c12 -30 26 -78 31 -105 13 -68 13 -209 -1 -271
-12 -57 -60 -175 -70 -175 -6 0 -139 164 -188 232 -11 15 -2 36 69 160 91 160
129 221 134 216 2 -1 13 -28 25 -57z m-857 -283 c21 -46 37 -86 37 -90 0 -5
-36 -8 -81 -8 -80 0 -81 0 -75 23 9 39 66 157 75 157 4 0 24 -37 44 -82z"/>
</g>
</svg>
